<svg width="128" height="128" viewBox="0 0 128 128" fill="none" xmlns="http://www.w3.org/2000/svg">
<path d="M114.906 84.145C114.906 84.145 114.734 83.105 114.636 83.117L95.813 84.934C95.0893 85.0016 94.4133 85.3244 93.9059 85.8447C93.3984 86.365 93.0925 87.0489 93.043 87.774L92.527 95.187L77.961 96.227L76.973 89.507C76.8613 88.7798 76.4937 88.1164 75.9364 87.6361C75.3791 87.1558 74.6687 86.8901 73.933 86.887H54.067C53.3315 86.8904 52.6213 87.1561 52.0642 87.6364C51.5071 88.1167 51.1397 88.78 51.028 89.507L50.04 96.227L35.474 95.187L34.958 87.773C34.9092 87.0476 34.6036 86.3633 34.096 85.8429C33.5884 85.3224 32.9119 84.9998 32.188 84.933L13.353 83.117C13.259 83.105 13.185 84.145 13.087 84.145L13.063 88.219L29.017 90.793L29.537 98.27C29.5916 99.0063 29.9086 99.6985 30.4303 100.221C30.952 100.743 31.6438 101.061 32.38 101.117L52.439 102.551C52.517 102.555 52.591 102.559 52.665 102.559C53.3994 102.554 54.108 102.287 54.6635 101.807C55.2191 101.327 55.5851 100.664 55.696 99.938L56.716 93.023H71.286L72.306 99.938C72.4232 100.702 72.8224 101.394 73.4248 101.877C74.0272 102.361 74.789 102.601 75.56 102.551L95.622 101.117C96.3584 101.062 97.0504 100.744 97.5723 100.221C98.0942 99.6988 98.4113 99.0064 98.466 98.27L98.986 90.793L114.931 88.207L114.906 84.145Z" fill="white"/>
<path d="M13.086 53.422V84.145C13.145 84.145 13.199 84.148 13.254 84.152L32.09 85.97C32.5672 86.0159 33.0127 86.2294 33.3474 86.5727C33.6821 86.916 33.8842 87.3668 33.918 87.845L34.5 96.161L50.926 97.333L52.059 89.661C52.13 89.1793 52.3717 88.7392 52.7402 88.4209C53.1086 88.1026 53.5791 87.9273 54.066 87.927H73.934C74.4209 87.9273 74.8914 88.1026 75.2598 88.4209C75.6283 88.7392 75.87 89.1793 75.941 89.661L77.074 97.333L93.504 96.161L94.082 87.845C94.1158 87.3668 94.3179 86.916 94.6526 86.5727C94.9873 86.2294 95.4328 86.0159 95.91 85.97L114.738 84.153C114.793 84.149 114.848 84.146 114.906 84.146V81.69H114.914V53.42C117.566 50.085 120.074 46.401 122 43.304C119.059 38.296 115.457 33.824 111.605 29.679C108.052 31.4763 104.607 33.4811 101.289 35.683C99.649 34.05 97.805 32.718 95.989 31.323C94.207 29.893 92.199 28.843 90.293 27.62C90.859 23.397 91.141 19.241 91.253 14.901C86.34 12.425 81.098 10.788 75.797 9.608C73.68 13.167 71.742 17.018 70.059 20.784C68.059 20.452 66.051 20.327 64.039 20.304V20.3C64.023 20.3 64.012 20.304 64 20.304C63.988 20.304 63.977 20.3 63.96 20.3V20.304C61.95 20.327 59.941 20.452 57.941 20.784C56.258 17.019 54.321 13.167 52.203 9.608C46.903 10.788 41.66 12.425 36.746 14.901C36.859 19.241 37.141 23.397 37.707 27.621C35.801 28.843 33.793 29.894 32.012 31.323C30.199 32.718 28.352 34.05 26.711 35.683C23.393 33.4811 19.9484 31.4763 16.395 29.679C12.543 33.824 8.94 38.297 6 43.305C8.313 46.934 10.793 50.578 13.086 53.422Z" fill="#2A7AE4"/>
<path d="M98.008 89.84L97.426 98.2C97.3919 98.6872 97.1829 99.1456 96.8373 99.4907C96.4918 99.8359 96.0332 100.044 95.546 100.078L75.484 101.512C75.438 101.516 75.387 101.516 75.34 101.516C74.344 101.516 73.48 100.786 73.336 99.786L72.184 91.98H55.816L54.664 99.785C54.5898 100.291 54.3273 100.75 53.9289 101.07C53.5306 101.39 53.0259 101.548 52.516 101.512L32.453 100.078C31.9658 100.044 31.5073 99.8354 31.162 99.49C30.8166 99.1447 30.6078 98.6862 30.574 98.199L29.992 89.839L13.055 88.207C13.063 90.027 13.085 92.023 13.085 92.418C13.085 110.305 35.777 118.902 63.965 119H64.035C92.223 118.902 114.906 110.305 114.906 92.418C114.906 92.016 114.93 90.028 114.937 88.207L98.008 89.84Z" fill="#2A7AE4"/>
<path d="M48.652 65.895C48.652 72.165 43.57 77.246 37.301 77.246C31.035 77.246 25.953 72.164 25.953 65.895C25.953 59.629 31.035 54.551 37.301 54.551C43.571 54.551 48.652 59.629 48.652 65.895Z" fill="white"/>
<path d="M45.922 66.566C45.9221 67.5554 45.7273 68.5351 45.3486 69.4492C44.97 70.3633 44.4149 71.1938 43.7152 71.8933C43.0154 72.5928 42.1847 73.1475 41.2704 73.5258C40.3562 73.9041 39.3764 74.0985 38.387 74.098C36.389 74.0983 34.4728 73.3049 33.0597 71.8924C31.6467 70.4799 30.8525 68.564 30.852 66.566C30.8531 64.5684 31.6474 62.653 33.0604 61.2409C34.4734 59.8288 36.3894 59.0357 38.387 59.036C39.3762 59.0355 40.3559 59.2298 41.27 59.608C42.1841 59.9862 43.0147 60.5407 43.7144 61.24C44.4142 61.9393 44.9693 62.7695 45.3481 63.6834C45.7268 64.5972 45.9219 65.5768 45.922 66.566" fill="#2A7AE4"/>
<path d="M64 78.277C61.98 78.277 60.348 76.789 60.348 74.957V64.507C60.348 62.676 61.98 61.187 64 61.187C66.016 61.187 67.656 62.676 67.656 64.507V74.957C67.656 76.789 66.016 78.277 64 78.277ZM79.348 65.895C79.348 72.165 84.43 77.246 90.699 77.246C96.965 77.246 102.047 72.164 102.047 65.895C102.047 59.629 96.965 54.551 90.699 54.551C84.429 54.551 79.348 59.629 79.348 65.895Z" fill="white"/>
<path d="M82.078 66.566C82.0777 67.5551 82.2723 68.5346 82.6507 69.4485C83.0291 70.3623 83.5838 71.1927 84.2831 71.8922C84.9825 72.5916 85.8128 73.1464 86.7266 73.5249C87.6405 73.9034 88.6199 74.0981 89.609 74.098C91.6065 74.098 93.5221 73.3045 94.9346 71.8921C96.347 70.4796 97.1405 68.564 97.1405 66.5665C97.1405 64.569 96.347 62.6534 94.9346 61.2409C93.5221 59.8285 91.6065 59.035 89.609 59.035C88.6201 59.035 87.6408 59.2298 86.7272 59.6083C85.8135 59.9868 84.9834 60.5415 84.2841 61.2408C83.5849 61.9402 83.0303 62.7704 82.6519 63.6841C82.2735 64.5978 82.0789 65.5771 82.079 66.566" fill="#2A7AE4"/>
</svg>
