<svg width="34" height="34" viewBox="0 0 34 34" fill="none" xmlns="http://www.w3.org/2000/svg">
<path d="M11 3.66667V9H3.27614C2.67247 9 2.09353 9.23981 1.66667 9.66667C1.23981 10.0935 1 10.6725 1 11.2761V11.6667V21.3905C1 21.9942 1.23981 22.5731 1.66667 23C2.09353 23.4269 2.67247 23.6667 3.27614 23.6667H3.66667H5.09726C6.8845 23.6667 8.33333 22.2178 8.33333 20.4306C8.33333 19.9282 8.4503 19.4327 8.67497 18.9834L8.76262 18.8081C8.91985 18.4936 9.12673 18.2066 9.37532 17.958C9.98873 17.3446 10.8207 17 11.6882 17H22.2857C23.1699 17 24.0179 16.6487 24.6432 16.0235C24.8797 15.787 25.0793 15.5162 25.2352 15.2202L25.2531 15.1863C25.5247 14.6708 25.6667 14.0969 25.6667 13.5142V3.66667V3.38743C25.6667 2.35981 25.0091 1.44748 24.0342 1.12251C23.7908 1.04137 23.5358 1 23.2792 1H13.3874C13.1308 1 12.8759 1.04137 12.6325 1.12251C11.6576 1.44748 11 2.35981 11 3.38743V3.66667Z" fill="white"/>
<path d="M11 9H18.3333H19M11 9V3.66667V3.38743C11 2.35981 11.6576 1.44748 12.6325 1.12251V1.12251C12.8759 1.04137 13.1308 1 13.3874 1H23.2792C23.5358 1 23.7908 1.04137 24.0342 1.12251V1.12251C25.0091 1.44748 25.6667 2.35981 25.6667 3.38743V3.66667V13.5142C25.6667 14.0969 25.5247 14.6708 25.2531 15.1863L25.2352 15.2202C25.0793 15.5162 24.8797 15.787 24.6432 16.0235V16.0235C24.0179 16.6487 23.1699 17 22.2857 17H11.6882C10.8207 17 9.98873 17.3446 9.37532 17.958V17.958C9.12673 18.2066 8.91985 18.4936 8.76262 18.8081L8.67497 18.9834C8.4503 19.4327 8.33333 19.9282 8.33333 20.4306V20.4306C8.33333 22.2178 6.8845 23.6667 5.09726 23.6667H3.66667H3.27614C2.67247 23.6667 2.09353 23.4269 1.66667 23V23C1.23981 22.5731 1 21.9942 1 21.3905V11.6667V11.2761C1 10.6725 1.23981 10.0935 1.66667 9.66667V9.66667C2.09353 9.23981 2.67247 9 3.27614 9H11Z" stroke="#2A7AE4"/>
<path d="M27.6666 25H22.9999V29V30.382C22.9999 30.7884 22.9053 31.1893 22.7235 31.5528C22.4702 32.0595 22.0594 32.4703 21.5527 32.7236C21.1892 32.9054 20.7883 33 20.3819 33H10.7207C10.4641 33 10.2091 32.9586 9.96571 32.8775C8.99082 32.5525 8.33325 31.6402 8.33325 30.6126V30.3333V20.5501C8.33325 19.9691 8.46852 19.3961 8.72833 18.8765L8.76254 18.8081C8.91977 18.4936 9.12665 18.2066 9.37524 17.958C9.98864 17.3446 10.8206 17 11.6881 17H21.6666C22.9256 17 24.1112 16.4072 24.8666 15.4L25.0666 15.1333C25.4561 14.6141 25.6666 13.9825 25.6666 13.3333C25.6666 11.6765 27.0097 10.3333 28.6666 10.3333H29.6666H30.3819C30.7883 10.3333 31.1892 10.428 31.5527 10.6097C32.0594 10.8631 32.4702 11.2739 32.7235 11.7806C32.9053 12.1441 32.9999 12.5449 32.9999 12.9514V22.7239C32.9999 23.3275 32.7601 23.9065 32.3333 24.3333C31.9064 24.7602 31.3274 25 30.7238 25H30.3333H27.6666Z" fill="white"/>
<path d="M14.9999 25H22.9999M22.9999 25H27.6666H30.3333H30.7238C31.3274 25 31.9064 24.7602 32.3333 24.3333V24.3333C32.7601 23.9065 32.9999 23.3275 32.9999 22.7239V12.9514C32.9999 12.5449 32.9053 12.1441 32.7235 11.7806V11.7806C32.4702 11.2739 32.0594 10.8631 31.5527 10.6097V10.6097C31.1892 10.428 30.7883 10.3333 30.3819 10.3333H29.6666H28.6666C27.0097 10.3333 25.6666 11.6765 25.6666 13.3333V13.3333C25.6666 13.9825 25.4561 14.6141 25.0666 15.1333L24.8666 15.4C24.1112 16.4072 22.9256 17 21.6666 17H11.6881C10.8206 17 9.98864 17.3446 9.37524 17.958V17.958C9.12665 18.2066 8.91977 18.4936 8.76254 18.8081L8.72833 18.8765C8.46852 19.3961 8.33325 19.9691 8.33325 20.5501V30.3333V30.6126C8.33325 31.6402 8.99082 32.5525 9.96571 32.8775V32.8775C10.2091 32.9586 10.4641 33 10.7207 33H20.3819C20.7883 33 21.1892 32.9054 21.5527 32.7236V32.7236C22.0594 32.4703 22.4702 32.0595 22.7235 31.5528V31.5528C22.9053 31.1893 22.9999 30.7884 22.9999 30.382V29V25Z" stroke="#2A7AE4"/>
<path d="M20.3334 29C20.3334 29.7364 19.7365 30.3333 19.0001 30.3333C18.2637 30.3333 17.6667 29.7364 17.6667 29C17.6667 28.2636 18.2637 27.6667 19.0001 27.6667C19.7365 27.6667 20.3334 28.2636 20.3334 29Z" fill="#2A7AE4"/>
<path d="M16.3334 4.99999C16.3334 5.73637 15.7365 6.33332 15.0001 6.33332C14.2637 6.33332 13.6667 5.73637 13.6667 4.99999C13.6667 4.26361 14.2637 3.66666 15.0001 3.66666C15.7365 3.66666 16.3334 4.26361 16.3334 4.99999Z" fill="#2A7AE4"/>
<path d="M15.5 25C15.5 25.2761 15.2761 25.5 15 25.5C14.7239 25.5 14.5 25.2761 14.5 25C14.5 24.7239 14.7239 24.5 15 24.5C15.2761 24.5 15.5 24.7239 15.5 25Z" fill="#2A7AE4"/>
<path d="M19.5 9C19.5 9.27614 19.2761 9.5 19 9.5C18.7239 9.5 18.5 9.27614 18.5 9C18.5 8.72386 18.7239 8.5 19 8.5C19.2761 8.5 19.5 8.72386 19.5 9Z" fill="#2A7AE4"/>
</svg>
