<svg width="176" height="174" viewBox="0 0 176 174" fill="none" xmlns="http://www.w3.org/2000/svg">
<rect width="176" height="174" fill="white"/>
<path d="M44 84H20C18.5333 84 17.3333 85.2 17.3333 86.6667V102.667C17.3333 104.133 18.5333 105.333 20 105.333H26.6666V108H37.3333V105.333H44C45.4666 105.333 46.6533 104.133 46.6533 102.667L46.6666 86.6667C46.6666 85.2 45.4666 84 44 84ZM44 102.667H20V86.6667H44V102.667Z" fill="#2A7AE4"/>
<path d="M20.272 123.64H22.512L26.688 135H24.416L23.36 132.168H19.392L18.352 135H16.08L20.272 123.64ZM22.96 130.616L21.392 125.928L19.76 130.616H22.96ZM30.689 135.16C29.9743 135.16 29.2917 135.043 28.641 134.808C27.9903 134.573 27.4303 134.227 26.961 133.768L27.729 132.376C28.2303 132.781 28.721 133.08 29.201 133.272C29.6917 133.464 30.161 133.56 30.609 133.56C31.025 133.56 31.3557 133.485 31.601 133.336C31.857 133.187 31.985 132.963 31.985 132.664C31.985 132.461 31.9157 132.307 31.777 132.2C31.6383 132.083 31.4357 131.981 31.169 131.896C30.913 131.811 30.5983 131.715 30.225 131.608C29.6063 131.405 29.089 131.208 28.673 131.016C28.257 130.824 27.9423 130.584 27.729 130.296C27.5263 129.997 27.425 129.619 27.425 129.16C27.425 128.605 27.5637 128.131 27.841 127.736C28.129 127.331 28.5237 127.016 29.025 126.792C29.537 126.568 30.1343 126.456 30.817 126.456C31.4143 126.456 31.9797 126.552 32.513 126.744C33.0463 126.925 33.5317 127.224 33.969 127.64L33.105 129C32.6783 128.669 32.273 128.429 31.889 128.28C31.505 128.12 31.1157 128.04 30.721 128.04C30.497 128.04 30.2837 128.067 30.081 128.12C29.889 128.173 29.729 128.264 29.601 128.392C29.4837 128.509 29.425 128.68 29.425 128.904C29.425 129.107 29.4783 129.267 29.585 129.384C29.7023 129.491 29.873 129.587 30.097 129.672C30.3317 129.757 30.6143 129.853 30.945 129.96C31.617 130.152 32.1823 130.349 32.641 130.552C33.1103 130.755 33.4623 131.005 33.697 131.304C33.9317 131.592 34.049 131.992 34.049 132.504C34.049 133.336 33.745 133.987 33.137 134.456C32.529 134.925 31.713 135.16 30.689 135.16ZM38.5953 135.16C37.8806 135.16 37.1979 135.043 36.5473 134.808C35.8966 134.573 35.3366 134.227 34.8673 133.768L35.6353 132.376C36.1366 132.781 36.6273 133.08 37.1073 133.272C37.5979 133.464 38.0673 133.56 38.5153 133.56C38.9313 133.56 39.2619 133.485 39.5073 133.336C39.7633 133.187 39.8913 132.963 39.8913 132.664C39.8913 132.461 39.8219 132.307 39.6833 132.2C39.5446 132.083 39.3419 131.981 39.0753 131.896C38.8193 131.811 38.5046 131.715 38.1313 131.608C37.5126 131.405 36.9953 131.208 36.5793 131.016C36.1633 130.824 35.8486 130.584 35.6353 130.296C35.4326 129.997 35.3313 129.619 35.3313 129.16C35.3313 128.605 35.4699 128.131 35.7473 127.736C36.0353 127.331 36.4299 127.016 36.9313 126.792C37.4433 126.568 38.0406 126.456 38.7233 126.456C39.3206 126.456 39.8859 126.552 40.4193 126.744C40.9526 126.925 41.4379 127.224 41.8753 127.64L41.0113 129C40.5846 128.669 40.1793 128.429 39.7953 128.28C39.4113 128.12 39.0219 128.04 38.6273 128.04C38.4033 128.04 38.1899 128.067 37.9873 128.12C37.7953 128.173 37.6353 128.264 37.5073 128.392C37.3899 128.509 37.3313 128.68 37.3313 128.904C37.3313 129.107 37.3846 129.267 37.4913 129.384C37.6086 129.491 37.7793 129.587 38.0033 129.672C38.2379 129.757 38.5206 129.853 38.8513 129.96C39.5233 130.152 40.0886 130.349 40.5473 130.552C41.0166 130.755 41.3686 131.005 41.6033 131.304C41.8379 131.592 41.9553 131.992 41.9553 132.504C41.9553 133.336 41.6513 133.987 41.0433 134.456C40.4353 134.925 39.6193 135.16 38.5953 135.16ZM43.4135 135V126.616H45.5575V135H43.4135ZM43.4135 125.448V123.32H45.5575V125.448H43.4135ZM50.5796 135.16C49.865 135.16 49.1823 135.043 48.5316 134.808C47.881 134.573 47.321 134.227 46.8516 133.768L47.6196 132.376C48.121 132.781 48.6116 133.08 49.0916 133.272C49.5823 133.464 50.0516 133.56 50.4996 133.56C50.9156 133.56 51.2463 133.485 51.4916 133.336C51.7476 133.187 51.8756 132.963 51.8756 132.664C51.8756 132.461 51.8063 132.307 51.6676 132.2C51.529 132.083 51.3263 131.981 51.0596 131.896C50.8036 131.811 50.489 131.715 50.1156 131.608C49.497 131.405 48.9796 131.208 48.5636 131.016C48.1476 130.824 47.833 130.584 47.6196 130.296C47.417 129.997 47.3156 129.619 47.3156 129.16C47.3156 128.605 47.4543 128.131 47.7316 127.736C48.0196 127.331 48.4143 127.016 48.9156 126.792C49.4276 126.568 50.025 126.456 50.7076 126.456C51.305 126.456 51.8703 126.552 52.4036 126.744C52.937 126.925 53.4223 127.224 53.8596 127.64L52.9956 129C52.569 128.669 52.1636 128.429 51.7796 128.28C51.3956 128.12 51.0063 128.04 50.6116 128.04C50.3876 128.04 50.1743 128.067 49.9716 128.12C49.7796 128.173 49.6196 128.264 49.4916 128.392C49.3743 128.509 49.3156 128.68 49.3156 128.904C49.3156 129.107 49.369 129.267 49.4756 129.384C49.593 129.491 49.7636 129.587 49.9876 129.672C50.2223 129.757 50.505 129.853 50.8356 129.96C51.5076 130.152 52.073 130.349 52.5316 130.552C53.001 130.755 53.353 131.005 53.5876 131.304C53.8223 131.592 53.9396 131.992 53.9396 132.504C53.9396 133.336 53.6356 133.987 53.0276 134.456C52.4196 134.925 51.6036 135.16 50.5796 135.16ZM60.375 134.568C60.1937 134.643 59.975 134.728 59.719 134.824C59.463 134.92 59.1857 134.995 58.887 135.048C58.599 135.112 58.3057 135.144 58.007 135.144C57.6123 135.144 57.2497 135.075 56.919 134.936C56.5883 134.797 56.3217 134.579 56.119 134.28C55.927 133.971 55.831 133.571 55.831 133.08V128.264H54.727V126.616H55.831V123.896H57.975V126.616H59.735V128.264H57.975V132.36C57.9857 132.648 58.0657 132.856 58.215 132.984C58.3643 133.112 58.551 133.176 58.775 133.176C58.999 133.176 59.2177 133.139 59.431 133.064C59.6443 132.989 59.815 132.925 59.943 132.872L60.375 134.568ZM61.4916 135V126.616H63.6356V135H61.4916ZM61.4916 125.448V123.32H63.6356V125.448H61.4916ZM70.5618 128.472C69.9111 128.472 69.3298 128.6 68.8177 128.856C68.3058 129.101 67.9378 129.459 67.7138 129.928V135H65.5698V126.616H67.5378V128.408C67.8364 127.832 68.2151 127.379 68.6738 127.048C69.1324 126.717 69.6178 126.536 70.1298 126.504C70.2471 126.504 70.3378 126.504 70.4018 126.504C70.4658 126.504 70.5191 126.509 70.5618 126.52V128.472ZM75.7536 128.696H74.6496V127.064H75.7536V126.552C75.7536 126.083 75.8283 125.645 75.9776 125.24C76.1376 124.835 76.3616 124.477 76.6496 124.168C76.9483 123.848 77.3056 123.603 77.7216 123.432C78.1483 123.251 78.6283 123.16 79.1616 123.16C79.567 123.16 79.9456 123.203 80.2976 123.288C80.6603 123.373 81.0016 123.496 81.3216 123.656C81.6523 123.816 81.967 123.997 82.2656 124.2L81.4176 125.8C81.1403 125.555 80.815 125.357 80.4416 125.208C80.0683 125.059 79.6896 124.984 79.3056 124.984C78.9963 124.984 78.735 125.053 78.5216 125.192C78.3083 125.331 78.1483 125.512 78.0416 125.736C77.9456 125.96 77.8976 126.205 77.8976 126.472V127.064H82.3936V135H80.2496V128.696H77.8976V135H75.7536V128.696ZM84.3194 123.32H86.4634V132.312C86.4634 132.696 86.5274 132.957 86.6554 133.096C86.7834 133.224 86.9594 133.288 87.1834 133.288C87.354 133.288 87.53 133.267 87.7114 133.224C87.8927 133.181 88.0527 133.128 88.1914 133.064L88.4794 134.696C88.1914 134.835 87.8554 134.941 87.4714 135.016C87.0874 135.091 86.7407 135.128 86.4314 135.128C85.7594 135.128 85.2367 134.952 84.8634 134.6C84.5007 134.237 84.3194 133.725 84.3194 133.064V123.32ZM102.438 135H100.294V130.296C100.294 129.635 100.176 129.149 99.9415 128.84C99.7175 128.52 99.4028 128.36 98.9975 128.36C98.5815 128.36 98.1815 128.525 97.7975 128.856C97.4242 129.176 97.1575 129.597 96.9975 130.12V135H94.8535V130.296C94.8535 129.624 94.7362 129.133 94.5015 128.824C94.2775 128.515 93.9628 128.36 93.5575 128.36C93.1415 128.36 92.7415 128.52 92.3575 128.84C91.9842 129.16 91.7175 129.581 91.5575 130.104V135H89.4135V126.616H91.3495V128.168C91.6695 127.624 92.0962 127.208 92.6295 126.92C93.1628 126.621 93.7762 126.472 94.4695 126.472C95.1628 126.472 95.7015 126.643 96.0855 126.984C96.4802 127.325 96.7308 127.747 96.8375 128.248C97.1788 127.672 97.6108 127.235 98.1335 126.936C98.6668 126.627 99.2642 126.472 99.9255 126.472C100.448 126.472 100.87 126.568 101.19 126.76C101.52 126.941 101.776 127.192 101.958 127.512C102.139 127.821 102.262 128.173 102.326 128.568C102.4 128.963 102.438 129.363 102.438 129.768V135ZM108.192 135.16C107.52 135.16 106.912 135.048 106.368 134.824C105.824 134.589 105.36 134.275 104.976 133.88C104.592 133.475 104.293 133.016 104.08 132.504C103.877 131.981 103.776 131.432 103.776 130.856C103.776 130.056 103.952 129.325 104.304 128.664C104.667 128.003 105.179 127.475 105.84 127.08C106.512 126.675 107.301 126.472 108.208 126.472C109.125 126.472 109.909 126.675 110.56 127.08C111.211 127.475 111.707 128.003 112.048 128.664C112.4 129.315 112.576 130.019 112.576 130.776C112.576 130.904 112.571 131.037 112.56 131.176C112.549 131.304 112.539 131.411 112.528 131.496H106.048C106.091 131.923 106.213 132.296 106.416 132.616C106.629 132.936 106.896 133.181 107.216 133.352C107.547 133.512 107.899 133.592 108.272 133.592C108.699 133.592 109.099 133.491 109.472 133.288C109.856 133.075 110.117 132.797 110.256 132.456L112.096 132.968C111.893 133.395 111.6 133.773 111.216 134.104C110.843 134.435 110.4 134.696 109.888 134.888C109.376 135.069 108.811 135.16 108.192 135.16ZM106 130.136H110.384C110.341 129.709 110.219 129.341 110.016 129.032C109.824 128.712 109.568 128.467 109.248 128.296C108.928 128.115 108.571 128.024 108.176 128.024C107.792 128.024 107.44 128.115 107.12 128.296C106.811 128.467 106.555 128.712 106.352 129.032C106.16 129.341 106.043 129.709 106 130.136ZM116.97 135.16C116.256 135.16 115.573 135.043 114.922 134.808C114.272 134.573 113.712 134.227 113.242 133.768L114.01 132.376C114.512 132.781 115.002 133.08 115.482 133.272C115.973 133.464 116.442 133.56 116.89 133.56C117.306 133.56 117.637 133.485 117.882 133.336C118.138 133.187 118.266 132.963 118.266 132.664C118.266 132.461 118.197 132.307 118.058 132.2C117.92 132.083 117.717 131.981 117.45 131.896C117.194 131.811 116.88 131.715 116.506 131.608C115.888 131.405 115.37 131.208 114.954 131.016C114.538 130.824 114.224 130.584 114.01 130.296C113.808 129.997 113.706 129.619 113.706 129.16C113.706 128.605 113.845 128.131 114.122 127.736C114.41 127.331 114.805 127.016 115.306 126.792C115.818 126.568 116.416 126.456 117.098 126.456C117.696 126.456 118.261 126.552 118.794 126.744C119.328 126.925 119.813 127.224 120.25 127.64L119.386 129C118.96 128.669 118.554 128.429 118.17 128.28C117.786 128.12 117.397 128.04 117.002 128.04C116.778 128.04 116.565 128.067 116.362 128.12C116.17 128.173 116.01 128.264 115.882 128.392C115.765 128.509 115.706 128.68 115.706 128.904C115.706 129.107 115.76 129.267 115.866 129.384C115.984 129.491 116.154 129.587 116.378 129.672C116.613 129.757 116.896 129.853 117.226 129.96C117.898 130.152 118.464 130.349 118.922 130.552C119.392 130.755 119.744 131.005 119.978 131.304C120.213 131.592 120.33 131.992 120.33 132.504C120.33 133.336 120.026 133.987 119.418 134.456C118.81 134.925 117.994 135.16 116.97 135.16ZM129.52 135.16C128.848 135.16 128.24 135.048 127.696 134.824C127.152 134.589 126.688 134.275 126.304 133.88C125.92 133.475 125.622 133.016 125.408 132.504C125.206 131.981 125.104 131.432 125.104 130.856C125.104 130.056 125.28 129.325 125.632 128.664C125.995 128.003 126.507 127.475 127.168 127.08C127.84 126.675 128.63 126.472 129.536 126.472C130.454 126.472 131.238 126.675 131.888 127.08C132.539 127.475 133.035 128.003 133.376 128.664C133.728 129.315 133.904 130.019 133.904 130.776C133.904 130.904 133.899 131.037 133.888 131.176C133.878 131.304 133.867 131.411 133.856 131.496H127.376C127.419 131.923 127.542 132.296 127.744 132.616C127.958 132.936 128.224 133.181 128.544 133.352C128.875 133.512 129.227 133.592 129.6 133.592C130.027 133.592 130.427 133.491 130.8 133.288C131.184 133.075 131.446 132.797 131.584 132.456L133.424 132.968C133.222 133.395 132.928 133.773 132.544 134.104C132.171 134.435 131.728 134.696 131.216 134.888C130.704 135.069 130.139 135.16 129.52 135.16ZM127.328 130.136H131.712C131.67 129.709 131.547 129.341 131.344 129.032C131.152 128.712 130.896 128.467 130.576 128.296C130.256 128.115 129.899 128.024 129.504 128.024C129.12 128.024 128.768 128.115 128.448 128.296C128.139 128.467 127.883 128.712 127.68 129.032C127.488 129.341 127.371 129.709 127.328 130.136ZM20.064 154.16C19.3493 154.16 18.6667 154.043 18.016 153.808C17.3653 153.573 16.8053 153.227 16.336 152.768L17.104 151.376C17.6053 151.781 18.096 152.08 18.576 152.272C19.0667 152.464 19.536 152.56 19.984 152.56C20.4 152.56 20.7307 152.485 20.976 152.336C21.232 152.187 21.36 151.963 21.36 151.664C21.36 151.461 21.2907 151.307 21.152 151.2C21.0133 151.083 20.8107 150.981 20.544 150.896C20.288 150.811 19.9733 150.715 19.6 150.608C18.9813 150.405 18.464 150.208 18.048 150.016C17.632 149.824 17.3173 149.584 17.104 149.296C16.9013 148.997 16.8 148.619 16.8 148.16C16.8 147.605 16.9387 147.131 17.216 146.736C17.504 146.331 17.8987 146.016 18.4 145.792C18.912 145.568 19.5093 145.456 20.192 145.456C20.7893 145.456 21.3547 145.552 21.888 145.744C22.4213 145.925 22.9067 146.224 23.344 146.64L22.48 148C22.0533 147.669 21.648 147.429 21.264 147.28C20.88 147.12 20.4907 147.04 20.096 147.04C19.872 147.04 19.6587 147.067 19.456 147.12C19.264 147.173 19.104 147.264 18.976 147.392C18.8587 147.509 18.8 147.68 18.8 147.904C18.8 148.107 18.8533 148.267 18.96 148.384C19.0773 148.491 19.248 148.587 19.472 148.672C19.7067 148.757 19.9893 148.853 20.32 148.96C20.992 149.152 21.5573 149.349 22.016 149.552C22.4853 149.755 22.8373 150.005 23.072 150.304C23.3067 150.592 23.424 150.992 23.424 151.504C23.424 152.336 23.12 152.987 22.512 153.456C21.904 153.925 21.088 154.16 20.064 154.16ZM28.7703 154.16C28.0983 154.16 27.4903 154.048 26.9463 153.824C26.4023 153.589 25.9383 153.275 25.5543 152.88C25.1703 152.475 24.8716 152.016 24.6583 151.504C24.4556 150.981 24.3543 150.432 24.3543 149.856C24.3543 149.056 24.5303 148.325 24.8823 147.664C25.2449 147.003 25.7569 146.475 26.4183 146.08C27.0903 145.675 27.8796 145.472 28.7863 145.472C29.7036 145.472 30.4876 145.675 31.1383 146.08C31.7889 146.475 32.2849 147.003 32.6263 147.664C32.9783 148.315 33.1543 149.019 33.1543 149.776C33.1543 149.904 33.1489 150.037 33.1383 150.176C33.1276 150.304 33.1169 150.411 33.1063 150.496H26.6263C26.6689 150.923 26.7916 151.296 26.9943 151.616C27.2076 151.936 27.4743 152.181 27.7943 152.352C28.1249 152.512 28.4769 152.592 28.8503 152.592C29.2769 152.592 29.6769 152.491 30.0503 152.288C30.4343 152.075 30.6956 151.797 30.8343 151.456L32.6743 151.968C32.4716 152.395 32.1783 152.773 31.7943 153.104C31.4209 153.435 30.9783 153.696 30.4663 153.888C29.9543 154.069 29.3889 154.16 28.7703 154.16ZM26.5783 149.136H30.9623C30.9196 148.709 30.7969 148.341 30.5943 148.032C30.4023 147.712 30.1463 147.467 29.8263 147.296C29.5063 147.115 29.1489 147.024 28.7543 147.024C28.3703 147.024 28.0183 147.115 27.6983 147.296C27.3889 147.467 27.1329 147.712 26.9303 148.032C26.7383 148.341 26.6209 148.709 26.5783 149.136ZM29.4583 144.64L28.0823 144.224L28.9463 142.32H30.9463L29.4583 144.64ZM39.4524 147.472C38.8017 147.472 38.2204 147.6 37.7084 147.856C37.1964 148.101 36.8284 148.459 36.6044 148.928V154H34.4604V145.616H36.4284V147.408C36.727 146.832 37.1057 146.379 37.5644 146.048C38.023 145.717 38.5084 145.536 39.0204 145.504C39.1377 145.504 39.2284 145.504 39.2924 145.504C39.3564 145.504 39.4097 145.509 39.4524 145.52V147.472ZM40.6479 154V145.616H42.7919V154H40.6479ZM40.6479 144.448V142.32H42.7919V144.448H40.6479ZM48.614 154.16C47.942 154.16 47.334 154.048 46.79 153.824C46.246 153.589 45.782 153.275 45.398 152.88C45.014 152.475 44.7153 152.016 44.502 151.504C44.2993 150.981 44.198 150.432 44.198 149.856C44.198 149.056 44.374 148.325 44.726 147.664C45.0887 147.003 45.6007 146.475 46.262 146.08C46.934 145.675 47.7233 145.472 48.63 145.472C49.5473 145.472 50.3313 145.675 50.982 146.08C51.6327 146.475 52.1287 147.003 52.47 147.664C52.822 148.315 52.998 149.019 52.998 149.776C52.998 149.904 52.9927 150.037 52.982 150.176C52.9713 150.304 52.9607 150.411 52.95 150.496H46.47C46.5127 150.923 46.6353 151.296 46.838 151.616C47.0513 151.936 47.318 152.181 47.638 152.352C47.9687 152.512 48.3207 152.592 48.694 152.592C49.1207 152.592 49.5207 152.491 49.894 152.288C50.278 152.075 50.5393 151.797 50.678 151.456L52.518 151.968C52.3153 152.395 52.022 152.773 51.638 153.104C51.2647 153.435 50.822 153.696 50.31 153.888C49.798 154.069 49.2327 154.16 48.614 154.16ZM46.422 149.136H50.806C50.7633 148.709 50.6407 148.341 50.438 148.032C50.246 147.712 49.99 147.467 49.67 147.296C49.35 147.115 48.9927 147.024 48.598 147.024C48.214 147.024 47.862 147.115 47.542 147.296C47.2327 147.467 46.9767 147.712 46.774 148.032C46.582 148.341 46.4647 148.709 46.422 149.136ZM57.3921 154.16C56.6775 154.16 55.9948 154.043 55.3441 153.808C54.6935 153.573 54.1335 153.227 53.6641 152.768L54.4321 151.376C54.9335 151.781 55.4241 152.08 55.9041 152.272C56.3948 152.464 56.8641 152.56 57.3121 152.56C57.7281 152.56 58.0588 152.485 58.3041 152.336C58.5601 152.187 58.6881 151.963 58.6881 151.664C58.6881 151.461 58.6188 151.307 58.4801 151.2C58.3415 151.083 58.1388 150.981 57.8721 150.896C57.6161 150.811 57.3015 150.715 56.9281 150.608C56.3095 150.405 55.7921 150.208 55.3761 150.016C54.9601 149.824 54.6455 149.584 54.4321 149.296C54.2295 148.997 54.1281 148.619 54.1281 148.16C54.1281 147.605 54.2668 147.131 54.5441 146.736C54.8321 146.331 55.2268 146.016 55.7281 145.792C56.2401 145.568 56.8375 145.456 57.5201 145.456C58.1175 145.456 58.6828 145.552 59.2161 145.744C59.7495 145.925 60.2348 146.224 60.6721 146.64L59.8081 148C59.3815 147.669 58.9761 147.429 58.5921 147.28C58.2081 147.12 57.8188 147.04 57.4241 147.04C57.2001 147.04 56.9868 147.067 56.7841 147.12C56.5921 147.173 56.4321 147.264 56.3041 147.392C56.1868 147.509 56.1281 147.68 56.1281 147.904C56.1281 148.107 56.1815 148.267 56.2881 148.384C56.4055 148.491 56.5761 148.587 56.8001 148.672C57.0348 148.757 57.3175 148.853 57.6481 148.96C58.3201 149.152 58.8855 149.349 59.3441 149.552C59.8135 149.755 60.1655 150.005 60.4001 150.304C60.6348 150.592 60.7521 150.992 60.7521 151.504C60.7521 152.336 60.4481 152.987 59.8401 153.456C59.2321 153.925 58.4161 154.16 57.3921 154.16Z" fill="#464646"/>
</svg>
