<svg width="30" height="32" viewBox="0 0 30 32" fill="none" xmlns="http://www.w3.org/2000/svg">
<path d="M13.0871 0.149082C9.9566 0.628643 7.17397 1.95666 5.02612 3.98556C2.66089 6.21736 0.895659 9.46362 0.200001 12.8482C0.0347829 13.6505 0.00869572 14.084 0 15.7256C0 17.736 0.0434786 18.1234 0.452177 19.8756C1.23479 23.2233 2.99133 26.1744 5.4783 28.2864C8.43485 30.8041 12.4001 32.1505 15.8958 31.8277C19.948 31.4496 23.5045 29.6697 25.9567 26.8016C28.7915 23.4723 30.2785 19.1009 29.9567 14.9693C29.6524 10.9484 28.1654 7.39782 25.6958 4.79713C22.2871 1.20043 17.5653 -0.542591 13.0871 0.149082ZM18.2958 1.16354C18.3741 1.23731 18.0088 2.50077 17.8784 2.57455C17.8001 2.62066 16.6697 2.98033 15.3653 3.36767L12.9914 4.08701L12.1914 3.80112C11.3479 3.48756 10.0957 3.19245 9.20007 3.08178C8.89572 3.05411 8.65224 2.99878 8.65224 2.97111C8.65224 2.95267 8.7305 2.78666 8.83485 2.62066C9.00007 2.32555 9.03485 2.3071 9.37398 2.36244C10.3044 2.50077 10.8436 2.61144 11.6262 2.83278L12.4697 3.07256L13.1044 2.74055C14.2436 2.15032 14.8175 2.01199 16.174 1.9751L17.3914 1.94743L17.5132 1.47709L17.6349 1.01598L17.948 1.07131C18.1219 1.1082 18.2784 1.14509 18.2958 1.16354ZM19.3741 1.47709C19.6523 1.48632 19.6958 1.61543 19.5654 2.08577C19.4958 2.33477 19.4349 2.54688 19.4349 2.55611C19.4349 2.56533 19.6175 2.65755 19.8349 2.759C20.9306 3.27545 22.2089 4.47435 22.8697 5.61791C23.0697 5.95914 23.261 6.18048 23.348 6.18048C23.5828 6.18048 25.148 6.67848 25.8698 6.99204L26.5219 7.26871L26.548 7.68371L26.5741 8.10794L25.7219 7.73905C24.8437 7.35171 23.6871 6.99204 22.7915 6.81681L22.2697 6.71537L20.9132 5.23058C20.1741 4.40979 19.3567 3.506 19.1219 3.22933L18.6784 2.72211L18.8523 2.04888C18.9827 1.54165 19.0523 1.38487 19.148 1.42176C19.2175 1.44943 19.3219 1.47709 19.3741 1.47709ZM7.74788 3.01722C7.49571 3.52445 6.13048 5.23058 5.25221 6.14359C4.38264 7.02893 2.68698 8.46761 2.60872 8.37539C2.56524 8.32927 3.41742 6.94593 3.8522 6.36492C4.76525 5.1568 6.17396 3.82878 7.3044 3.10022C7.59136 2.91578 7.83484 2.76822 7.85223 2.76822C7.86093 2.76822 7.81745 2.87889 7.74788 3.01722ZM19.9393 5.24902C20.9045 6.30959 21.6958 7.20415 21.6958 7.23182C21.6958 7.33326 19.148 10.9945 19.0436 11.0314C18.9914 11.0591 17.9132 10.7824 16.6436 10.4227C13.5305 9.5374 13.6958 9.59273 13.6958 9.3714C13.6871 9.26073 13.574 8.20016 13.4436 7.01048C13.3044 5.8208 13.2088 4.83402 13.2175 4.81557C13.2436 4.77868 17.974 3.34 18.0958 3.33078C18.148 3.32156 18.9741 4.18846 19.9393 5.24902ZM10.2349 4.02245C10.9566 4.17001 12.2957 4.57579 12.4088 4.69568C12.4436 4.72335 12.6001 5.86692 12.7479 7.23182L13.0262 9.7034L10.9914 11.8522L8.95659 14.001L6.91309 13.7335C5.79135 13.5952 4.76525 13.4753 4.64351 13.4753C4.43482 13.4661 4.39134 13.3923 4.14786 12.6084C3.73916 11.2989 3.33046 8.80883 3.50437 8.6705C3.53916 8.64283 3.87829 8.36616 4.2609 8.07105C5.15656 7.36093 6.80005 5.62714 7.56527 4.57579L8.16528 3.75501L8.84354 3.81956C9.21746 3.85645 9.84355 3.93945 10.2349 4.02245ZM23.1567 7.66527C24.0871 7.89582 24.835 8.15405 25.7045 8.54139L26.635 8.95639L26.6959 9.57429C26.835 11.0499 27.3219 13.088 27.948 14.7664C28.1393 15.3013 28.3046 15.7625 28.3046 15.8086C28.3046 16.0852 26.5219 18.2617 25.6958 18.9995L25.2958 19.3499L23.2263 18.4C22.0958 17.8836 21.1306 17.4225 21.0871 17.3764C21.0523 17.3303 20.6958 16.0207 20.3045 14.4529L19.5828 11.6216L19.8784 11.179C21.2784 9.10395 22.4263 7.56382 22.5741 7.56382C22.6697 7.56382 22.9306 7.60993 23.1567 7.66527ZM27.8002 9.19617C28.7046 11.2435 29.2611 13.6137 29.2524 15.3567C29.2524 15.9838 29.2524 15.993 29.122 15.744C28.6002 14.7203 27.8524 12.2764 27.5654 10.6902C27.4089 9.75873 27.2698 8.30161 27.3567 8.30161C27.3828 8.30161 27.5828 8.70739 27.8002 9.19617ZM2.86089 9.84173C2.93915 10.7271 3.21742 12.0643 3.50437 12.9497L3.74785 13.7059L3.00872 16.4172L2.26089 19.1378L1.8261 19.2946C1.09566 19.5528 1.09566 19.5528 0.965225 18.8519C0.965225 18.815 1.11305 18.732 1.30436 18.6583C1.48697 18.5937 1.66958 18.4923 1.70436 18.4369C1.73045 18.3816 1.76523 17.8744 1.76523 17.3118C1.77393 16.0576 1.98262 15.1169 2.47828 14.0563L2.8348 13.3185L2.60872 12.4332C2.37393 11.511 2.13045 10.1553 2.13045 9.80484C2.13045 9.63884 2.56524 9.23306 2.74785 9.22384C2.77393 9.22384 2.82611 9.50051 2.86089 9.84173ZM16.2349 11.0775C17.6784 11.4925 18.8784 11.8338 18.8958 11.8522C18.9393 11.8983 20.3045 17.3856 20.3045 17.5239C20.3045 17.5977 19.4262 18.5937 18.3567 19.7281L16.4175 21.7846L15.4262 21.4987C12.7392 20.7148 11.2088 20.2906 11.1131 20.2906C11.0523 20.2906 10.9653 20.1154 10.9044 19.8941C10.8523 19.6819 10.5218 18.3816 10.174 17.0167L9.5392 14.5267L11.5044 12.424C12.5914 11.2712 13.5044 10.3305 13.5305 10.3305C13.5653 10.3305 14.7827 10.6625 16.2349 11.0775ZM6.76527 14.4713C7.90441 14.6189 8.84354 14.748 8.86094 14.7664C8.87833 14.7849 9.19137 16.0022 9.56529 17.4778C9.9392 18.9442 10.2609 20.1984 10.2783 20.2537C10.2957 20.3091 9.48703 21.01 8.47832 21.8031L6.64353 23.251L4.82612 21.3881C3.81742 20.3552 3.00002 19.4514 3.00002 19.3776C3.00002 19.2946 3.29568 18.0957 3.66959 16.7124C4.2696 14.4713 4.35655 14.2039 4.51308 14.2039C4.61743 14.2039 5.62613 14.3238 6.76527 14.4713ZM28.9046 16.9337L29.0959 17.2657L28.722 17.7914C28.5133 18.0773 27.9828 18.7136 27.5306 19.2024L26.7132 20.0969L26.6872 20.8255C26.6263 22.089 26.2698 23.2418 25.5045 24.6435L25.2176 25.1692L25.5045 25.4828C25.8176 25.824 25.8089 25.99 25.4785 26.2851C25.3567 26.3958 25.2785 26.3497 24.8958 25.9439L24.4524 25.4736L25.0958 22.7622L25.7306 20.0601L26.6524 19.0917C27.1567 18.5568 27.8176 17.7821 28.1219 17.3579C28.4263 16.9429 28.6872 16.6017 28.7046 16.6017C28.7133 16.6017 28.8089 16.7492 28.9046 16.9337ZM22.8871 19.064C23.9828 19.5528 24.8958 19.9771 24.9306 20.0047C25.0002 20.0693 23.8089 25.1784 23.6958 25.2983C23.661 25.3444 22.5393 25.6672 21.2089 26.0269C19.2697 26.5341 18.7654 26.6448 18.7132 26.5433C18.6697 26.4788 18.2523 25.492 17.7827 24.3484L16.9306 22.2734L18.8523 20.2168C19.9132 19.0917 20.8089 18.1695 20.8436 18.1695C20.8871 18.1695 21.8002 18.566 22.8871 19.064ZM4.39134 21.9691C5.51308 23.1126 6.39135 24.081 6.39135 24.1732C6.39135 24.5329 6.93049 26.5341 7.25223 27.3549L7.59136 28.231L7.19136 28.2034L6.78266 28.1757L6.46092 27.2903C6.287 26.8016 6.04352 26.0177 5.92178 25.5381L5.71309 24.6712L5.12178 24.2562C4.29568 23.6844 3.46959 22.7806 2.95654 21.9045C2.26958 20.7056 2.25219 20.6964 1.60001 20.8993C1.50436 20.927 1.43479 20.844 1.36523 20.595C1.31305 20.4105 1.27827 20.2445 1.28697 20.2353C1.30436 20.2076 2.2261 19.9402 2.33045 19.9309C2.36524 19.9217 3.29568 20.844 4.39134 21.9691ZM13.4784 21.7201C14.8697 22.1074 16.061 22.4394 16.1479 22.4671C16.2262 22.4947 16.3306 22.6239 16.374 22.7622C16.4262 22.9005 16.8349 23.9242 17.2958 25.0401L18.1306 27.0598L17.2001 28.0374C16.6784 28.5815 15.9566 29.2639 15.574 29.559L14.8958 30.1032L14.4871 29.9372C12.3392 29.0703 11.0436 28.6829 9.42616 28.4339L8.40006 28.2771L8.1218 27.6224C7.5218 26.1929 6.94788 23.9888 7.13918 23.8043C7.5131 23.4354 10.774 20.9546 10.8523 20.9823C10.9131 21.0007 12.0957 21.3327 13.4784 21.7201ZM24.4784 26.5157L24.8611 26.9307L24.6524 27.1612C24.4002 27.4471 24.2958 27.4471 24.0437 27.1612C23.9306 27.0321 23.7567 26.9307 23.6523 26.9307C23.5567 26.9307 23.1045 27.1336 22.6523 27.3826C21.5567 27.982 20.7915 28.2218 19.7828 28.2864L18.9567 28.3417L18.0871 29.227C17.6088 29.7158 17.0001 30.2968 16.7219 30.5089L16.2349 30.9055L15.9392 30.7211C15.7827 30.6104 15.6523 30.5182 15.6523 30.4997C15.6523 30.4813 15.9653 30.2046 16.3479 29.8818C16.7306 29.5683 17.4262 28.8858 17.8871 28.3878L18.7393 27.4656L21.2349 26.7831C22.6176 26.4142 23.8176 26.1099 23.9132 26.1007C24.0176 26.1007 24.2611 26.2851 24.4784 26.5157ZM10.2523 29.3654C10.9131 29.4945 11.9827 29.7896 12.6175 30.0109C13.7566 30.4167 15.0871 31.0162 15.0871 31.1268C15.0871 31.2098 13.5914 31.0899 12.6957 30.9332C11.8957 30.7948 11.0696 30.5643 10.2175 30.2415C9.60877 30.0109 7.86962 29.1256 7.86962 29.0518C7.86962 28.9688 8.89572 29.0979 10.2523 29.3654Z" fill="#2A7AE4"/>
<path d="M8.08706 5.09224C7.43488 5.96836 6.01748 7.49004 5.05225 8.32927L4.20007 9.0855L4.25225 9.66651C4.30442 10.2106 4.5566 11.6309 4.60877 11.6954C4.61747 11.7139 4.87834 11.6309 5.18269 11.5294C6.32183 11.1236 7.62619 11.3173 8.84359 12.0828L9.45229 12.4701L10.574 11.2896L11.6871 10.1092L11.5132 9.82329C10.6001 8.35694 10.3653 6.89981 10.8088 5.50724C10.9566 5.04613 10.9566 4.98157 10.8349 4.93546C10.661 4.86168 9.54794 4.64957 8.94794 4.56657L8.51315 4.51123L8.08706 5.09224Z" fill="#2A7AE4"/>
<path d="M23.461 9.14083C23.4089 9.44516 23.2523 9.93394 23.1219 10.2198C22.8089 10.9207 21.9045 11.8614 21.1567 12.2672C20.6262 12.5623 20.5741 12.6084 20.6262 12.8205C20.661 12.9496 20.8436 13.669 21.0349 14.4344L21.3915 15.8178L22.0002 15.7901C23.3306 15.7256 24.5306 16.1959 25.4263 17.1458L25.9915 17.736L26.3306 17.3302C26.6784 16.906 27.3567 15.993 27.4698 15.7993C27.5045 15.7348 27.3915 15.3198 27.2263 14.8771C26.7828 13.6966 26.348 12.0274 26.1306 10.6533C26.0263 9.98928 25.9306 9.45438 25.9306 9.44516C25.6697 9.27916 23.8002 8.57826 23.6089 8.57826C23.5828 8.57826 23.5132 8.82727 23.461 9.14083Z" fill="#2A7AE4"/>
<path d="M12.0348 12.9312L10.9565 14.1578L11.4 15.0893C11.9739 16.3066 12.2261 17.3579 12.287 18.7413C12.3218 19.6359 12.3479 19.8295 12.4696 19.8664C12.5479 19.8941 13.2 20.0785 13.9131 20.2906C14.6348 20.4935 15.2696 20.6872 15.3305 20.7056C15.3914 20.7333 15.5392 20.5212 15.6957 20.2076C16.0174 19.5252 16.8348 18.437 17.4435 17.8652C17.8522 17.4778 19.0696 16.5648 19.2696 16.491C19.3131 16.4726 19.1566 15.7164 18.9218 14.8034L18.5044 13.1433L18.2349 13.171C17.7479 13.2264 16.3479 13.0142 15.5566 12.7745C15.1305 12.6361 14.4348 12.3502 14.0174 12.1197C13.5913 11.8983 13.2174 11.7139 13.1826 11.7139C13.1392 11.7139 12.6261 12.2672 12.0348 12.9312Z" fill="#2A7AE4"/>
<path d="M11.487 22.5501C10.9131 23.7305 9.80876 24.6528 8.66093 24.9387C8.35658 25.0124 8.09571 25.0954 8.06962 25.1231C8.00875 25.1877 8.66962 27.2074 8.86093 27.5486C8.86962 27.5486 9.37398 27.65 10.0001 27.7607C11.2436 27.982 12.8088 28.4339 13.9827 28.9227L14.7566 29.2363L15.0262 29.0334C15.1827 28.9227 15.6262 28.5446 16.0175 28.1941L16.7305 27.5578L16.2262 27.0598C15.6784 26.5249 15.1827 25.6396 15.0088 24.8741C14.9566 24.6251 14.9044 24.081 14.9044 23.6475C14.9044 23.2233 14.8871 22.8729 14.8697 22.8729C14.8523 22.8729 14.1827 22.6884 13.374 22.4579C12.574 22.2273 11.8783 22.0429 11.8262 22.0429C11.7827 22.0429 11.6262 22.2734 11.487 22.5501Z" fill="#2A7AE4"/>
</svg>
