<svg width="32" height="32" viewBox="0 0 32 32" fill="none" xmlns="http://www.w3.org/2000/svg">
<path d="M8.0088 20.4721V1H8.27273L9.03519 1.08798L9.3871 1.14663L9.85631 1.26393L10.0909 1.32258L10.4428 1.46921L11.0293 1.67449L11.5572 1.96774L12.2023 2.43695L12.7302 2.87683L13.3167 3.49267L13.9619 4.48974L14.1965 4.95894L14.2551 5.07625L14.3138 5.19355L14.3724 5.31085L14.4311 5.42815L14.4897 5.60411L14.5484 5.72141L14.607 5.89736L14.6657 6.10264L14.783 6.54252L14.8416 6.77713L14.9003 7.07038L14.9589 7.36364L15.0176 7.83284L15.0762 7.8915V26.4545L15.0469 25.5748L14.9003 24.9883L14.6364 24.1965L14.2845 23.522L14.0792 23.2581L13.6393 22.6129L12.7889 21.8211L11.088 20.824L9.82698 20.4721H8.0088Z" fill="#2A7AE4"/>
<path d="M16.8358 7.71554L16.8944 27.4223L17.305 27.129L18.0674 26.6598L19.0059 26.2493L20.3548 25.8974L20.6774 25.8387L21.1173 25.7801L21.9384 25.7293H27.4516V6.30792H21.6745L20.9413 6.39589L20.1202 6.5132L18.7713 6.80645L16.8358 7.71554Z" fill="#2A7AE4"/>
<path d="M4.51906 4.54839H6.21994L6.23425 22.261H9.24047L9.65103 22.2903L9.94428 22.3783L10.2669 22.4956L10.7947 22.7009L11.2346 22.9355L11.7625 23.2874L12.173 23.6686L12.7302 24.4604L13.1114 25.2229L13.2874 25.868V26.3959L12.9062 26.2493L11.9677 25.956L10.6481 25.6921H4.57771L4.51906 4.54839Z" fill="#2A7AE4"/>
<path d="M31 29.2405L30.9707 9.85631L29.2698 9.82698V27.5396L21.4399 27.5103L20.6774 27.6569L19.9443 27.8622L19.5044 28.0088L18.7126 28.39L17.4223 29.2991L14.5484 29.2698C14.5191 29.2502 14.4545 29.2111 14.4311 29.2111C14.4076 29.2111 14.1867 29.0352 14.0792 28.9472L13.6979 28.6833L13.3167 28.4487L12.8475 28.1848L12.4369 28.0088L12.085 27.8915L11.5279 27.7155L11.2053 27.6569L10.8534 27.5982L10.1496 27.5396H2.70088V8.06745H1V29.2405H10.0909L10.6774 29.2991L11 29.3578L11.2639 29.4164L11.6158 29.5337L11.8211 29.5924L12.085 29.7097L12.4369 29.8856L13.0235 30.2962L13.4633 30.6481L13.8446 31H18.1261L18.3021 30.824L18.4194 30.7067L18.654 30.5308L19.0059 30.2375L19.3871 29.9736L19.563 29.8856L19.7683 29.7683L19.8856 29.7097L20.0029 29.6804L20.1789 29.5924L20.3255 29.5337L20.5308 29.4751L20.7067 29.4164L20.9707 29.3578L21.1173 29.2991L21.3226 29.2405H31Z" fill="#2A7AE4"/>
<path d="M8.0088 20.4721V1H8.27273L9.03519 1.08798L9.3871 1.14663L9.85631 1.26393L10.0909 1.32258L10.4428 1.46921L11.0293 1.67449L11.5572 1.96774L12.2023 2.43695L12.7302 2.87683L13.3167 3.49267L13.9619 4.48974L14.1965 4.95894L14.2551 5.07625L14.3138 5.19355L14.3724 5.31085L14.4311 5.42815L14.4897 5.60411L14.5484 5.72141L14.607 5.89736L14.6657 6.10264L14.783 6.54252L14.8416 6.77713L14.9003 7.07038L14.9589 7.36364L15.0176 7.83284L15.0762 7.8915V26.4545L15.0469 25.5748L14.9003 24.9883L14.6364 24.1965L14.2845 23.522L14.0792 23.2581L13.6393 22.6129L12.7889 21.8211L11.088 20.824L9.82698 20.4721H8.0088Z" stroke="#2A7AE4"/>
<path d="M16.8358 7.71554L16.8944 27.4223L17.305 27.129L18.0674 26.6598L19.0059 26.2493L20.3548 25.8974L20.6774 25.8387L21.1173 25.7801L21.9384 25.7293H27.4516V6.30792H21.6745L20.9413 6.39589L20.1202 6.5132L18.7713 6.80645L16.8358 7.71554Z" stroke="#2A7AE4"/>
<path d="M4.51906 4.54839H6.21994L6.23425 22.261H9.24047L9.65103 22.2903L9.94428 22.3783L10.2669 22.4956L10.7947 22.7009L11.2346 22.9355L11.7625 23.2874L12.173 23.6686L12.7302 24.4604L13.1114 25.2229L13.2874 25.868V26.3959L12.9062 26.2493L11.9677 25.956L10.6481 25.6921H4.57771L4.51906 4.54839Z" stroke="#2A7AE4"/>
<path d="M31 29.2405L30.9707 9.85631L29.2698 9.82698V27.5396L21.4399 27.5103L20.6774 27.6569L19.9443 27.8622L19.5044 28.0088L18.7126 28.39L17.4223 29.2991L14.5484 29.2698C14.5191 29.2502 14.4545 29.2111 14.4311 29.2111C14.4076 29.2111 14.1867 29.0352 14.0792 28.9472L13.6979 28.6833L13.3167 28.4487L12.8475 28.1848L12.4369 28.0088L12.085 27.8915L11.5279 27.7155L11.2053 27.6569L10.8534 27.5982L10.1496 27.5396H2.70088V8.06745H1V29.2405H10.0909L10.6774 29.2991L11 29.3578L11.2639 29.4164L11.6158 29.5337L11.8211 29.5924L12.085 29.7097L12.4369 29.8856L13.0235 30.2962L13.4633 30.6481L13.8446 31H18.1261L18.3021 30.824L18.4194 30.7067L18.654 30.5308L19.0059 30.2375L19.3871 29.9736L19.563 29.8856L19.7683 29.7683L19.8856 29.7097L20.0029 29.6804L20.1789 29.5924L20.3255 29.5337L20.5308 29.4751L20.7067 29.4164L20.9707 29.3578L21.1173 29.2991L21.3226 29.2405H31Z" stroke="#2A7AE4"/>
</svg>
