<svg width="1150" height="1176" viewBox="0 0 1150 1176" fill="none" xmlns="http://www.w3.org/2000/svg">
<path d="M779.5 1.09996C756 3.49996 717.3 17.6 696.5 31.4C684.6 39.4 674.5 50.8 676.6 54.1C676.9 54.6 676.2 56.3 675.1 57.9C673.9 59.5 672.1 63 670.9 65.6C668.4 71.3 668.3 72.8 669.5 116.7L670.3 145.9L666.4 147.5C662.7 149 614.6 166.6 465.5 221C427.6 234.9 370.9 255.6 339.5 267C308.2 278.4 275.4 290.3 266.8 293.4L251.1 298.9L245.5 296.5C242.4 295.1 239 293.8 238 293.7C237 293.5 234.2 291 231.8 288C223.6 277.8 206.3 254.5 204.7 251.4C201.8 245.8 195.3 238.4 190.4 235.2C187.8 233.4 182.5 231 178.6 229.9C174.7 228.7 168.7 226.4 165.3 224.7C159.1 221.8 158.9 221.7 146.8 222.3C117.6 223.6 72.4 240.6 51.1 258.4C43.6 264.6 38.8 270.8 39.1 274C39.3 275.4 38.2 278.5 36.8 281C34 285.8 31 295.6 31 300.1C31 301.6 32.1 308.5 33.5 315.5C34.9 322.5 36.6 335 37.2 343.4L38.3 358.7L33.8 365.1C29.3 371.4 28.1 373.4 21.4 385.5C0.599988 423.3 -5.40001 472.1 5.09999 517.3C7.39999 527 13.4 545.1 15.6 548.5C16.2 549.6 18 556.1 19.4 563C23.2 581.1 51.4 735.5 57 769C67.4 830.8 77.2 860.7 96.1 889C114.4 916.3 139 931.7 169.8 935C180.5 936.1 211.4 935.9 207.8 934.8C206.3 934.3 207 934.2 209.5 934.5C220.4 935.7 248.9 928.3 264.2 920.1C284.4 909.4 301.3 894.1 314.3 874.5C316.9 870.7 319 867 319 866.3C319 865.7 319.3 865 319.8 864.8C320.8 864.3 327.4 850.5 329.8 843.5C334.4 830.2 338.3 807.9 337.6 798.5C337.2 793.6 337.3 793.2 338 796C338.7 798.6 338.8 797.3 338.5 791C338.3 786.1 338.5 783.8 338.9 785.5C339.5 787.9 339.8 786.9 340.4 780.5C341.7 765.7 347.5 735.4 351.6 721C356.4 704.5 368.8 695 380.8 698.6C390.6 701.6 399.9 703.2 412 703.8C421.4 704.3 423.4 704.6 420 705.1C417.2 705.5 420.5 705.8 428.7 705.8C467.3 706.3 491.4 695.9 521.1 666C532.1 655 535.8 649.3 536.7 642.2L537.3 637.2L544.9 635C561.6 630.1 627.7 613.9 646 610.2C671.3 605 690.9 602.2 691.8 603.6C694 606.8 709.1 610 722.5 610C736.8 609.9 764 604.5 762.5 601.9C761.6 600.6 764.8 600.8 772.8 602.5C806.6 609.6 823.2 630.5 823.2 666C823.2 680 821.4 688.8 816.1 700.5C805.4 724.1 781.3 747.8 742.2 773.4C735 778.1 709.8 793.5 686.3 807.6C623.6 845.1 597.8 862.5 571.5 885.2C527.8 922.9 500.7 966.2 490.2 1015C487.8 1026.2 487.6 1029.6 487.6 1047.5C487.6 1066.5 487.7 1068 490.3 1076.5C504.1 1121 546.4 1149.6 620.5 1164.5C695.5 1179.6 802.9 1179.2 930.4 1163.4C967.5 1158.8 1021.6 1150.5 1024 1149C1024.9 1148.5 1024.9 1146.8 1023.9 1142.1C1023.3 1138.8 1022.4 1136 1022 1136C1021.6 1136 1017.7 1136.7 1013.4 1137.5C965.9 1146.5 885.5 1155.9 819 1160.2C793.1 1161.9 710.4 1161.9 690.5 1160.2C604.1 1152.8 552.4 1136 523.2 1105.6C501.2 1082.7 495.6 1056.4 504 1016.1C513.4 970.6 541.1 928.2 585.4 891.1C609.1 871.2 633.5 855 692 820C756.8 781.3 777.6 766.9 798.7 746.7C815.4 730.6 829.1 709 834.2 690.5C837.2 679.6 837.4 653.2 834.6 642.5C828.2 617.8 812.9 601.6 786.5 591.4C783.2 590.1 781.3 589.1 782.3 589C783.2 589 784 588.5 784 588C784 587.4 784.6 587 785.3 587C786.6 587 794 580.9 801 574C806 569.1 813.1 560 817.5 553C820.9 547.6 830.5 538 832.6 538C833.5 538 833.8 537.5 833.4 536.8C832.2 534.9 841.4 541.8 854.9 552.9C861.8 558.7 878.1 574 891 586.9C903.9 599.9 917.2 612.6 920.5 615.1C939.2 629.4 962.2 639.8 987.3 645.2C995.8 647 1001.2 647.4 1018.9 647.5C1030.7 647.6 1039.5 647.3 1038.4 646.9C1037.3 646.4 1038.4 646.3 1041.1 646.6C1050.1 647.7 1075.2 641.2 1089.4 634C1101.9 627.7 1116.5 617.4 1124.9 609.1C1132.6 601.5 1140.1 591.5 1141.5 587C1141.9 585.6 1142.6 584.3 1142.9 584C1143.9 583.3 1146.7 573.8 1148.4 565.4C1149.5 560.2 1149.8 552.5 1149.6 535.9C1149.4 516.9 1149.1 511.9 1147.1 503C1140.9 474.7 1126.9 441.4 1105.2 403.8C1101.9 398.1 1094.2 383.8 1088 372C1081.8 360.2 1065.4 329.1 1051.5 303C1022.4 248.3 1017.4 238.5 1019 239.5C1019.8 240 1020 239.6 1019.6 238.4C1019.3 237.3 1018.6 233.4 1018 229.5C1015.9 216.1 1010 197 1003.5 182.5C999.1 172.5 997.1 168.6 992.5 161C974.3 131 954.1 110.9 923.6 92.6C910.5 84.7 899.1 79.7 878.8 72.6L863.5 67.3L855.8 55.9C851.5 49.6 845.7 40 842.9 34.5C840.1 29 836.7 23 835.3 21.2C831.4 16 824.1 11.2 816.5 8.89996C812.7 7.69996 806.8 5.49996 803.5 3.89996C796.8 0.799958 790 -4.1931e-05 779.5 1.09996ZM649.5 585.4C652.3 586.2 655.4 587.1 656.4 587.6C657.9 588.1 658.1 588 657.5 587C657 586.1 657.1 585.9 657.9 586.4C658.5 586.8 658.8 587.5 658.5 588C658 588.8 661.9 590.6 665.4 591.2C666.4 591.4 656.3 593.9 642.9 596.8C629.5 599.7 601.9 606.2 581.7 611.1C561.4 616.1 544.6 619.9 544.2 619.6C543.9 619.3 544.3 619 545.2 619C546 619 548.1 617.7 549.7 616.1C555.3 610.8 569.8 604.7 604 593.4C609.8 591.5 615.4 589.5 616.5 588.9C620.4 587 633.6 584.2 639 584.1C642 584.1 646.8 584.6 649.5 585.4ZM662.5 589C662.8 589.6 662.4 589.7 661.6 589.4C659.8 588.7 659.5 588 660.9 588C661.5 588 662.2 588.4 662.5 589ZM339.7 775.2C339.4 775.9 339.2 775.4 339.2 774C339.2 772.6 339.4 772.1 339.7 772.7C339.9 773.4 339.9 774.6 339.7 775.2ZM336.7 807.2C336.4 807.9 336.2 807.4 336.2 806C336.2 804.6 336.4 804.1 336.7 804.7C336.9 805.4 336.9 806.6 336.7 807.2ZM335.7 811.2C335.4 812 335.1 811.7 335.1 810.6C335 809.5 335.3 808.9 335.6 809.3C335.9 809.6 336 810.5 335.7 811.2ZM214.7 933.6C214.4 933.9 213.5 934 212.8 933.7C212 933.4 212.3 933.1 213.4 933.1C214.5 933 215.1 933.3 214.7 933.6Z" fill="#2A7AE4"/>
</svg>
